<svg width="22" height="22" viewBox="0 0 22 22" fill="none" xmlns="http://www.w3.org/2000/svg">
<path d="M18.4462 0H3.35385C2.46465 0.000970967 1.61215 0.354634 0.983391 0.983391C0.354634 1.61215 0.000970967 2.46465 0 3.35385V18.4462C0.000970967 19.3354 0.354634 20.1879 0.983391 20.8166C1.61215 21.4454 2.46465 21.799 3.35385 21.8H18.4462C19.3354 21.799 20.1879 21.4454 20.8166 20.8166C21.4454 20.1879 21.799 19.3354 21.8 18.4462V3.35385C21.799 2.46465 21.4454 1.61215 20.8166 0.983391C20.1879 0.354634 19.3354 0.000970967 18.4462 0ZM16.5727 7.24693L9.52964 15.6315C9.45238 15.7236 9.35625 15.7979 9.24775 15.8495C9.13925 15.9012 9.02093 15.9289 8.90079 15.9308H8.88664C8.76912 15.9307 8.65292 15.906 8.54558 15.8581C8.43824 15.8103 8.34216 15.7404 8.26356 15.653L5.2451 12.2992C5.16844 12.2179 5.10881 12.1221 5.06971 12.0174C5.03061 11.9127 5.01283 11.8013 5.01741 11.6896C5.02199 11.578 5.04885 11.4683 5.0964 11.3672C5.14395 11.2661 5.21123 11.1755 5.29429 11.1007C5.37736 11.026 5.47452 10.9686 5.58009 10.9319C5.68565 10.8953 5.79747 10.8801 5.90899 10.8873C6.0205 10.8944 6.12946 10.9238 6.22945 10.9737C6.32945 11.0236 6.41846 11.093 6.49126 11.1777L8.86463 13.8147L15.2888 6.16846C15.4329 6.00185 15.6368 5.89865 15.8564 5.88115C16.076 5.86366 16.2936 5.93327 16.4623 6.07495C16.6309 6.21663 16.7371 6.41899 16.7577 6.6383C16.7784 6.8576 16.7119 7.07623 16.5727 7.24693Z" fill="#E95151"/>
</svg>
